<?xml version="1.0" encoding="utf-8"?>
<!-- Generator: Adobe Illustrator 21.0.2, SVG Export Plug-In . SVG Version: 6.00 Build 0)  -->
<svg version="1.1" id="Layer_1" xmlns="http://www.w3.org/2000/svg" xmlns:xlink="http://www.w3.org/1999/xlink" x="0px" y="0px"
	 viewBox="0 0 50 50" style="enable-background:new 0 0 50 50;" xml:space="preserve">
<style type="text/css">
	.st0{fill:#4D4D4D;}
	.st1{fill:#CCCCCC;}
	.st2{fill:none;}
	.st3{fill:#FFFFFF;}
	.st4{font-family:'MyriadPro-Regular';}
	.st5{font-size:6px;}
</style>
<path class="st0" d="M15.5,36.7h3.9v2.8h-3.9V36.7z M20.3,36.7h9.4v2.8h-9.4V36.7z M30.6,36.7h3.8v2.8h-3.8V36.7z M15.5,32.9h9.1
	v2.8h-9.1V32.9z M25.5,32.9h9v2.8h-9V32.9z M15.5,29h3.9v2.8h-3.9V29z M20.3,29h9.4v2.8h-9.4V29z M30.6,29h3.8v2.8h-3.8V29z
	 M15.5,25.5h9.1V28h-9.1V25.5z M25.5,25.5h9V28h-9V25.5z M15.5,21.6h3.9v2.8h-3.9V21.6z M20.3,21.6h9.4v2.8h-9.4V21.6z M30.6,21.6
	h3.8v2.8h-3.8V21.6z M15.5,17.8h9.1v2.8h-9.1V17.8z M25.5,17.8h9v2.8h-9V17.8z M15.5,14h3.9v2.8h-3.9V14z M20.3,14h9.4v2.8h-9.4V14z
	 M30.6,14h3.8v2.8h-3.8V14z M15.5,10.5h9.1v2.4h-9.1V10.5z M25.5,10.5h9v2.4h-9V10.5z M14.4,40.6h21.2V9.4H14.4V40.6z"/>
<rect y="-5" class="st2" width="50" height="5"/>
<text transform="matrix(1 0 0 1 0 -0.7109)" class="st3 st4 st5">Cleaning  – On</text>
</svg>
