<?xml version="1.0" encoding="utf-8"?>
<!-- Generator: Adobe Illustrator 21.0.2, SVG Export Plug-In . SVG Version: 6.00 Build 0)  -->
<svg version="1.1" id="Layer_1" xmlns="http://www.w3.org/2000/svg" xmlns:xlink="http://www.w3.org/1999/xlink" x="0px" y="0px"
	 viewBox="0 0 50 50" style="enable-background:new 0 0 50 50;" xml:space="preserve">
<style type="text/css">
	.st0{fill:#4D4D4D;}
	.st1{fill:#CCCCCC;}
	.st2{fill:#FFFFFF;}
	.st3{fill:none;}
	.st4{font-family:'MyriadPro-Regular';}
	.st5{font-size:6px;}
</style>
<path class="st0" d="M29.7,20.4v-2.6h8v-0.9H17.3l18.2-6.3v-1l-20.9,7.3h-0.2c-0.2-0.4-0.6-0.6-1-0.6c-0.6,0-1.1,0.5-1.1,1.1
	c0,0.6,0.5,1.1,1.1,1.1c0.4,0,0.8-0.3,1-0.6h6.6v2.6h-8v20h24.6v-20H29.7z M22,17.8h6.7v2.6H22V17.8z M36.6,39.3H14.2V21.5h22.4
	V39.3z"/>
<rect y="-5" class="st3" width="50" height="5"/>
<text transform="matrix(1 0 0 1 0 -0.7109)" class="st2 st4 st5">Hanging Sign – On</text>
</svg>
