<?xml version="1.0" encoding="utf-8"?>
<!-- Generator: Adobe Illustrator 21.0.2, SVG Export Plug-In . SVG Version: 6.00 Build 0)  -->
<svg version="1.1" id="Layer_1" xmlns="http://www.w3.org/2000/svg" xmlns:xlink="http://www.w3.org/1999/xlink" x="0px" y="0px"
	 viewBox="0 0 50 50" style="enable-background:new 0 0 50 50;" xml:space="preserve">
<style type="text/css">
	.st0{fill:#4D4D4D;}
	.st1{fill:#CCCCCC;}
	.st2{fill:#FFFFFF;}
	.st3{fill:none;}
	.st4{font-family:'MyriadPro-Regular';}
	.st5{font-size:6px;}
</style>
<g>
	<rect x="24.5" y="34.3" class="st1" width="1" height="2.4"/>
	<polygon class="st1" points="30.7,35.5 31.5,35 30,33.1 29.2,33.6 	"/>
	<polygon class="st1" points="19.3,35.5 18.5,35 20,33.1 20.8,33.6 	"/>
	<path class="st1" d="M25.5,19.4v-6.1h-1v6.1c0.2,0,0.3,0,0.5,0C25.2,19.4,25.3,19.4,25.5,19.4"/>
	<path class="st1" d="M15.6,28.9c0.3-4.7,4.4-8.5,9.4-8.5c5,0,9.1,3.7,9.4,8.5H15.6z M25,32c-1.5,0-2.8-0.8-3.7-2h7.4
		C27.8,31.2,26.5,32,25,32 M25.5,19.4c-0.2,0-0.3,0-0.5,0c-0.2,0-0.3,0-0.5,0c-5.6,0.2-10,4.7-10,10.1V30H20c1.1,1.9,2.9,3.1,5,3.1
		c2.1,0,3.9-1.2,5-3.1h5.5v-0.5C35.5,24.1,31.1,19.7,25.5,19.4"/>
</g>
<rect y="-5" class="st3" width="50" height="5"/>
<text transform="matrix(1 0 0 1 0 -0.7109)" class="st2 st4 st5">Lighting – Off</text>
</svg>
