<?xml version="1.0" encoding="utf-8"?>
<!-- Generator: Adobe Illustrator 21.0.2, SVG Export Plug-In . SVG Version: 6.00 Build 0)  -->
<svg version="1.1" id="Layer_1" xmlns="http://www.w3.org/2000/svg" xmlns:xlink="http://www.w3.org/1999/xlink" x="0px" y="0px"
	 viewBox="0 0 50 50" style="enable-background:new 0 0 50 50;" xml:space="preserve">
<style type="text/css">
	.st0{fill:#4D4D4D;}
	.st1{fill:#CCCCCC;}
	.st2{fill:#FFFFFF;}
	.st3{fill:none;}
	.st4{font-family:'MyriadPro-Regular';}
	.st5{font-size:6px;}
</style>
<g>
	<path class="st0" d="M25,40.7L25,40.7c0.9,0,2.3-0.3,2.4-2.3c0-0.4-0.1-1.5-0.3-2.7c-0.5-3.9-0.8-7,0.3-8c0.7-0.6,1.3-0.9,2.1-0.9
		c0.2,0,0.4,0,0.6,0c0.1,0,0.3,0,0.4,0c0.2,0,0.5,0,0.9-0.5c0.5-0.5,0.6-0.9,0.6-1l0-0.1l0,0v-2.2H18.1v2.2c0,0,0,0.5,0.5,1
		c0.4,0.4,0.7,0.4,1,0.4c0.1,0,0.2,0,0.4,0c0.2,0,0.3,0,0.5,0c0.8,0,1.4,0.3,2.1,1c1,1,0.7,4.1,0.3,8c-0.1,1.2-0.3,2.3-0.3,2.7
		C22.8,40.4,24.2,40.7,25,40.7L25,40.7z M25.1,41.8L25.1,41.8L25.1,41.8c-1.7,0-3.4-0.9-3.6-3.3c0-0.5,0.1-1.6,0.3-2.9
		c0.2-1.4,0.4-3,0.4-4.4c0.1-2-0.2-2.5-0.4-2.7c-0.6-0.6-1-0.6-1.3-0.6c-0.1,0-0.3,0-0.4,0c-0.2,0-0.3,0-0.5,0
		c-0.7,0-1.2-0.2-1.8-0.8C17,26.3,17,25.4,17,25.3V22h16v3.3c0,0.2,0,0.8-0.8,1.7c-0.5,0.6-1.1,0.8-1.7,0.8c-0.2,0-0.4,0-0.5,0
		c-0.2,0-0.3,0-0.4,0c-0.3,0-0.7,0.1-1.3,0.6c-0.1,0.1-0.4,0.6-0.4,2.7c0,1.4,0.2,3,0.4,4.4c0.2,1.3,0.3,2.4,0.3,2.9
		C28.4,40.9,26.6,41.8,25.1,41.8"/>
	<rect x="17" y="20" class="st0" width="16.1" height="1.1"/>
	<polygon class="st0" points="17,8.2 17,19.3 18.1,19.3 18.1,9.3 20.1,9.3 20.1,16 21,16 21,9.3 23.1,9.3 23.1,16 24,16 24,9.3 
		26,9.3 26,16 27,16 27,9.3 29,9.3 29,16 30,16 30,9.3 31.9,9.3 31.9,19.3 33,19.3 33,8.2 	"/>
</g>
<rect y="-5" class="st3" width="50" height="5"/>
<text transform="matrix(1 0 0 1 0 -0.7109)" class="st2 st4 st5">Painting – On</text>
</svg>
