<?xml version="1.0" encoding="utf-8"?>
<!-- Generator: Adobe Illustrator 21.0.2, SVG Export Plug-In . SVG Version: 6.00 Build 0)  -->
<svg version="1.1" id="Layer_1" xmlns="http://www.w3.org/2000/svg" xmlns:xlink="http://www.w3.org/1999/xlink" x="0px" y="0px"
	 viewBox="0 0 50 50" style="enable-background:new 0 0 50 50;" xml:space="preserve">
<style type="text/css">
	.st0{fill:#4D4D4D;}
	.st1{fill:#CCCCCC;}
	.st2{fill:#FFFFFF;}
	.st3{fill:none;}
	.st4{font-family:'MyriadPro-Regular';}
	.st5{font-size:6px;}
</style>
<path class="st1" d="M32.6,29.4h-0.8H18.2h-0.8v-4.1h15.2V29.4z M29.5,38.7h-9.1l-1-8.3h11.1L29.5,38.7z M24.1,16.2
	c0,0-0.4,0.3-0.9,0.3c-0.7,0-1.5-0.4-2.3-1.3c-1-1-1.4-2.8-1.5-3.8c1,0.2,2.6,0.7,3.5,1.5C25.2,15.1,24.2,16.1,24.1,16.2 M25.6,20.7
	c0.1-0.7,0.7-1.4,1.6-2c1.2-0.8,3.1-1,4.1-1c-0.3,0.9-1,2.4-2,3.1c-1,0.7-1.9,1.1-2.6,1.1c-0.6,0-0.9-0.3-0.9-0.3l0,0
	C25.8,21.6,25.6,21.3,25.6,20.7 M33.7,24.2h-8.3v-1.5c0.3,0.2,0.7,0.3,1.3,0.3c1,0,2.1-0.5,3.3-1.4c1.7-1.3,2.6-4.2,2.6-4.4l0.2-0.6
	l-0.7-0.1c0,0-0.3,0-0.8,0c-1.2,0-3.4,0.2-4.8,1.2c-0.4,0.3-0.8,0.6-1.1,1V16c0-0.2,0.1-0.3,0.1-0.5c0-1-0.6-2.1-1.9-3.3
	c-1.5-1.4-4.7-1.9-4.9-1.9l-0.7-0.1l0,0.7c0,0.1,0.2,3.4,1.9,5.2c1.1,1,2.1,1.6,3.2,1.6c0.5,0,1-0.1,1.3-0.3v6.9h-8.2v6.2h2.1
	l1.1,9.4h11.1l1.1-9.4h2.1V24.2z"/>
<rect y="-5" class="st3" width="50" height="5"/>
<text transform="matrix(1 0 0 1 0 -0.7109)" class="st2 st4 st5">Planting – Off</text>
</svg>
