<?xml version="1.0" encoding="utf-8"?>
<!-- Generator: Adobe Illustrator 21.0.2, SVG Export Plug-In . SVG Version: 6.00 Build 0)  -->
<svg version="1.1" id="Layer_1" xmlns="http://www.w3.org/2000/svg" xmlns:xlink="http://www.w3.org/1999/xlink" x="0px" y="0px"
	 viewBox="0 0 50 50" style="enable-background:new 0 0 50 50;" xml:space="preserve">
<style type="text/css">
	.st0{fill:#4D4D4D;}
	.st1{fill:#CCCCCC;}
	.st2{fill:#FFFFFF;}
	.st3{fill:none;}
	.st4{font-family:'MyriadPro-Regular';}
	.st5{font-size:6px;}
</style>
<path class="st0" d="M15.1,16.2h19.9l2.3,22.9H12.8L15.1,16.2z M25,10.9c2.5,0,4.6,1.8,4.9,4.2h-9.8C20.4,12.8,22.5,10.9,25,10.9
	 M36,15.1H31c-0.3-2.9-2.9-5.2-6-5.2c-3.1,0-5.7,2.3-6,5.2H14l-2.5,25h26.8L36,15.1z"/>
<path class="st0" d="M19.5,18.9c-0.4,0-0.7,0.3-0.7,0.7c0,0.4,0.3,0.7,0.7,0.7c0.4,0,0.7-0.3,0.7-0.7C20.2,19.2,19.9,18.9,19.5,18.9
	 M19.5,21.1c-0.8,0-1.5-0.6-1.5-1.4c0-0.8,0.7-1.4,1.5-1.4c0.8,0,1.5,0.6,1.5,1.4C21,20.4,20.3,21.1,19.5,21.1"/>
<path class="st0" d="M30.5,18.9c-0.4,0-0.7,0.3-0.7,0.7c0,0.4,0.3,0.7,0.7,0.7s0.7-0.3,0.7-0.7C31.2,19.2,30.9,18.9,30.5,18.9
	 M30.5,21.1c-0.8,0-1.5-0.6-1.5-1.4c0-0.8,0.7-1.4,1.5-1.4s1.5,0.6,1.5,1.4C32,20.4,31.3,21.1,30.5,21.1"/>
<rect y="-5" class="st3" width="50" height="5"/>
<text transform="matrix(1 0 0 1 0 -0.7109)" class="st2 st4 st5">Shop Front – On</text>
</svg>
