<?xml version="1.0" encoding="utf-8"?>
<!-- Generator: Adobe Illustrator 21.0.2, SVG Export Plug-In . SVG Version: 6.00 Build 0)  -->
<svg version="1.1" id="Layer_1" xmlns="http://www.w3.org/2000/svg" xmlns:xlink="http://www.w3.org/1999/xlink" x="0px" y="0px"
	 viewBox="0 0 50 50" style="enable-background:new 0 0 50 50;" xml:space="preserve">
<style type="text/css">
	.st0{fill:#4D4D4D;}
	.st1{fill:#CCCCCC;}
	.st2{fill:#FFFFFF;}
	.st3{fill:none;}
	.st4{font-family:'MyriadPro-Regular';}
	.st5{font-size:6px;}
</style>
<path class="st0" d="M25.6,18.5V9.7c5.1,0,9.3,4,9.3,8.8H25.6z M34.9,29.4h-9.3v-9.9h9.3V29.4z M34.9,40.4h-9.3v-9.9h9.3V40.4z
	 M24.4,18.5h-9.3c0-4.9,4.1-8.8,9.3-8.8V18.5z M24.4,29.4h-9.3v-9.9h9.3V29.4z M24.4,40.4h-9.3v-9.9h9.3V40.4z M35.9,19
	c0-6.2-4.4-10.4-10.9-10.4c-6.3,0-10.9,4.7-10.9,10.4h0v0.4v0v0v21.9h21.8V19.5v0L35.9,19L35.9,19z"/>
<rect y="-5" class="st3" width="50" height="5"/>
<text transform="matrix(1 0 0 1 0 -0.7109)" class="st2 st4 st5">Windows  – On</text>
</svg>
